<?xml version="1.0" encoding="UTF-8"?><svg xmlns="http://www.w3.org/2000/svg" viewBox="-20 -20 1025 530" xmlns:latexdraw="http://latexdraw.sourceforge.net/namespaces/latexdraw" version="1.1" baseProfile="full">
    <g>
        <g stroke="black" stroke-width="2.0" transform="translate(395,380)" latexdraw:style="AXES" latexdraw:gridStart="0.0 0.0" latexdraw:gridEnd="8.0 2.0" latexdraw:origin="0.0 0.0" latexdraw:increment="1.0 1.0" latexdraw:distLabels="1.0 1.0" latexdraw:ticksSize="7.055555555555555" latexdraw:showOrigin="true" latexdraw:showTicks="all" latexdraw:showLabels="all" latexdraw:ticksStyle="FULL" latexdraw:type="axe" id="id760056481">
            <g latexdraw:type="joinedLines" id="id985806945" transform="translate(-395,-380)">
                <polyline points="401.6458333333333,380.0 788.3541666666666,380.0 " stroke="black" stroke-width="2.0" fill="none" latexdraw:rotationAngle="0.0" marker-start="url(#arrow0-985806945)" marker-end="url(#arrow1-985806945)"/>
            </g>
            <g latexdraw:type="joinedLines" id="id1643063186" transform="translate(-395,-380)">
                <polyline points="395.0,373.3541666666667 395.0,286.6458333333333 " stroke="black" stroke-width="2.0" fill="none" latexdraw:rotationAngle="0.0" marker-start="url(#arrow0-1643063186)" marker-end="url(#arrow1-1643063186)"/>
            </g>
            <g fill="black">
                <text x="-3.032" y="22.724">0</text>
                <text x="47.783" y="22.724">1</text>
                <text x="97.17" y="22.724">2</text>
                <text x="147.041" y="22.724">3</text>
                <text x="196.978" y="22.724">4</text>
                <text x="247.075" y="22.724">5</text>
                <text x="296.914" y="22.724">6</text>
                <text x="347.266" y="22.724">7</text>
                <text x="-19.12" y="4.834">0</text>
                <text x="-17.489" y="-45.166">1</text>
            </g>
            <path d="M 0.0 7.055555555555555 L 0.0 -7.055555555555555 M 50.0 7.055555555555555 L 50.0 -7.055555555555555 M 100.0 7.055555555555555 L 100.0 -7.055555555555555 M 150.0 7.055555555555555 L 150.0 -7.055555555555555 M 200.0 7.055555555555555 L 200.0 -7.055555555555555 M 250.0 7.055555555555555 L 250.0 -7.055555555555555 M 300.0 7.055555555555555 L 300.0 -7.055555555555555 M 350.0 7.055555555555555 L 350.0 -7.055555555555555 M -7.055555555555555 0.0 L 7.055555555555555 0.0 M -7.055555555555555 -50.0 L 7.055555555555555 -50.0"/>
        </g>
        <g latexdraw:type="text" id="id1426088367" fill="black" latexdraw:position="bl">
            <text x="330.0" y="260.0">$y=P(x&gt;t)$</text>
        </g>
        <g latexdraw:type="text" id="id1287934661" fill="black" latexdraw:position="bl">
            <text x="800.0" y="420.0">$t$</text>
        </g>
        <g latexdraw:type="akinPoints" id="id1395829896" latexdraw:pathType="CURVES" latexdraw:interval="2" latexdraw:points="395.0 335.0 421.8181818181829 341.66666666666663 457.57575757575614 348.33333333333337 520.1515151515148 355.0 582.7272727272738 361.66666666666663 681.0606060606057 368.33333333333337 985.0000000000001 375.0 ">
            <path d="M 395.0 335.0 L 426.28787878787807 341.6666666666667 C 441.9318181818171 345.0 488.8636363636356 351.6666666666667 520.151515151515 355.0 C 551.4393939393944 358.3333333333333 683.2954545454554 365.0 783.8636363636369 368.3333333333333" stroke="black" stroke-width="2.0" fill="none"/>
        </g>
        <g latexdraw:type="polygon" id="id497358545">
            <polygon points="395.0,340.0 395.0,380.0 785.0,380.0 785.0,370.0 595.0,360.0 495.0,355.0 420.0,340.0 395.0,335.0 395.0,335.0 395.0,335.0 " stroke="black" stroke-width="2.0" fill="url(#linearGradient497358545)" latexdraw:rotationAngle="0.0"/>
        </g>
        <g latexdraw:type="joinedLines" id="id2097326948">
            <polyline points="570.0,375.0 590.0,415.0 " stroke="black" stroke-width="2.0" fill="none" latexdraw:rotationAngle="0.0" marker-end="url(#arrow1-2097326948)"/>
        </g>
        <g latexdraw:type="text" id="id755951151" fill="black" latexdraw:position="bl">
            <text x="585.0" y="445.0">$E(X)=\int_0^{+\infty}P(X&gt;t)dt$</text>
        </g>
        <g latexdraw:type="joinedLines" id="id225617351">
            <polyline points="470.0,349.7368421052632 470.0,464.7368421052632 470.0,469.7368421052632 " stroke="black" stroke-width="2.0" fill="none" latexdraw:rotationAngle="0.0" marker-end="url(#arrow1-225617351)"/>
        </g>
        <g latexdraw:type="text" id="id577647773" fill="black" latexdraw:position="bl">
            <text x="465.0" y="490.0">$\epsilon$</text>
        </g>
        <g latexdraw:type="joinedLines" id="id2004432425">
            <polyline points="470.0,350.0 395.0,350.0 395.0,350.0 " stroke="black" stroke-width="2.0" fill="none" stroke-dasharray="8.819444444444445, 5.291666666666667" latexdraw:rotationAngle="0.0"/>
        </g>
        <g latexdraw:type="rectangle" id="id1311280147">
            <rect x="1.0" y="1.0" width="1.0" height="1.0" latexdraw:borderPos="outer" stroke="black" stroke-width="2.0" fill="none" stroke-dasharray="8.819444444444445, 5.291666666666667"/>
        </g>
        <g latexdraw:type="rectangle" id="id1608362774">
            <rect x="1.0" y="1.0" width="1.0" height="1.0" latexdraw:borderPos="outer" stroke="black" stroke-width="2.0" fill="none" stroke-dasharray="8.819444444444445, 5.291666666666667"/>
        </g>
        <g latexdraw:type="rectangle" id="id636628671">
            <rect x="396.0" y="351.0" width="73.0" height="28.0" latexdraw:borderPos="outer" stroke="blue" stroke-width="2.0" fill="url(#pattern636628671)" stroke-dasharray="8.819444444444445, 5.291666666666667"/>
        </g>
    </g>
    <defs>
        <marker overflow="visible" markerUnits="userSpaceOnUse" orient="180" id="arrow0-985806945">
            <path d="M 9.304166666666667 0.0 L 0.0 -3.322916666666667 L 0.0 0.0 L 0.0 3.322916666666667 z" fill="black" stroke="black" transform="rotate(180 0 0)" latexdraw:arrSizeNum="2" latexdraw:tbarSizeNum="5"/>
        </marker>
        <marker overflow="visible" markerUnits="userSpaceOnUse" orient="auto" id="arrow1-985806945">
            <path d="M 0.0 0.0 L -9.304166666666667 -3.322916666666667 L -9.304166666666667 0.0 L -9.304166666666667 3.322916666666667 z" fill="black" stroke="black" latexdraw:arrSizeNum="2" latexdraw:tbarSizeNum="5"/>
        </marker>
        <marker overflow="visible" markerUnits="userSpaceOnUse" orient="90" id="arrow0-1643063186">
            <path d="M 0.0 0.0 L -9.304166666666667 -3.322916666666667 L -9.304166666666667 0.0 L -9.304166666666667 3.322916666666667 z" fill="black" stroke="black" latexdraw:arrSizeNum="2" latexdraw:tbarSizeNum="5"/>
        </marker>
        <marker overflow="visible" markerUnits="userSpaceOnUse" orient="270" id="arrow1-1643063186">
            <path d="M 9.304166666666667 0.0 L 0.0 -3.322916666666667 L 0.0 0.0 L 0.0 3.322916666666667 z" fill="black" stroke="black" transform="rotate(180 0 0)" latexdraw:arrSizeNum="2" latexdraw:tbarSizeNum="5"/>
        </marker>
        <linearGradient id="linearGradient497358545" gradientTransform="rotate(90.0 0.5 0.5)">
            <stop offset="0" stop-color="#cccccc"/>
            <stop offset="0.9" stop-color="#ffb399"/>
        </linearGradient>
        <marker overflow="visible" markerUnits="userSpaceOnUse" orient="63.435" id="arrow1-2097326948">
            <path d="M 0.0 0.0 L -9.304166666666667 -3.322916666666667 L -9.304166666666667 0.0 L -9.304166666666667 3.322916666666667 z" fill="black" stroke="black" latexdraw:arrSizeNum="2" latexdraw:tbarSizeNum="5"/>
        </marker>
        <marker overflow="visible" markerUnits="userSpaceOnUse" orient="90" id="arrow1-225617351">
            <path d="M 0.0 0.0 L -9.304166666666667 -3.322916666666667 L -9.304166666666667 0.0 L -9.304166666666667 3.322916666666667 z" fill="black" stroke="black" latexdraw:arrSizeNum="2" latexdraw:tbarSizeNum="5"/>
        </marker>
        <pattern latexdraw:type="crosshatch" latexdraw:rotationAngle="0.0" latexdraw:size="7.055555555555555" patternUnits="userSpaceOnUse" id="pattern636628671" x="0" y="0" width="470" height="380">
            <g stroke="black" stroke-width="1.4111111111111112" stroke-dasharray="none">
                <path d="M 395.0 350.0 L 395.0 380.0 M 403.46666666666664 350.0 L 403.46666666666664 380.0 M 411.9333333333333 350.0 L 411.9333333333333 380.0 M 420.3999999999999 350.0 L 420.3999999999999 380.0 M 428.86666666666656 350.0 L 428.86666666666656 380.0 M 437.3333333333332 350.0 L 437.3333333333332 380.0 M 445.79999999999984 350.0 L 445.79999999999984 380.0 M 454.2666666666665 350.0 L 454.2666666666665 380.0 M 462.7333333333331 350.0 L 462.7333333333331 380.0 M 395.0 350.0 L 470.0 350.0 M 395.0 358.46666666666664 L 470.0 358.46666666666664 M 395.0 366.9333333333333 L 470.0 366.9333333333333 M 395.0 375.3999999999999 L 470.0 375.3999999999999"/>
            </g>
        </pattern>
    </defs>
    <metadata>
        <latexdraw:metadata>
            <latexdraw:centreHoriz>false</latexdraw:centreHoriz>
            <latexdraw:positionVert/>
            <latexdraw:zoom>1.3000000000000003</latexdraw:zoom>
            <latexdraw:vpx>0.503</latexdraw:vpx>
            <latexdraw:vpy>0.403</latexdraw:vpy>
        </latexdraw:metadata>
    </metadata>
</svg>
